<svg width="10" height="7" viewBox="0 0 10 7" fill="none" xmlns="http://www.w3.org/2000/svg">
<path d="M9.20704 0.293C9.39451 0.480528 9.49983 0.734836 9.49983 1C9.49983 1.26516 9.39451 1.51947 9.20704 1.707L4.20704 6.707C4.01951 6.89447 3.76521 6.99979 3.50004 6.99979C3.23488 6.99979 2.98057 6.89447 2.79304 6.707L0.793041 4.707C0.610883 4.5184 0.510088 4.2658 0.512367 4.0036C0.514645 3.7414 0.619814 3.49059 0.805222 3.30518C0.990631 3.11977 1.24144 3.0146 1.50364 3.01233C1.76584 3.01005 2.01844 3.11084 2.20704 3.293L3.50004 4.586L7.79304 0.293C7.98057 0.105529 8.23488 0.000213623 8.50004 0.000213623C8.76521 0.000213623 9.01951 0.105529 9.20704 0.293Z" fill="white"/>
</svg>
